<svg width="265" height="293" viewBox="0 0 265 293" fill="none" xmlns="http://www.w3.org/2000/svg">
<path d="M0 210V0H73.8C88.6 0 100.8 2.4 110.4 7.2C120.2 11.8 127.5 18.2 132.3 26.4C137.1 34.4 139.5 43.4 139.5 53.4C139.5 67 135.8 77.7 128.4 85.5C121.2 93.3 112.5 98.7 102.3 101.7C110.1 103.1 117.2 106.2 123.6 111C130 115.8 135 121.8 138.6 129C142.4 136.2 144.3 144.1 144.3 152.7C144.3 163.3 141.7 173 136.5 181.8C131.3 190.4 123.6 197.3 113.4 202.5C103.2 207.5 90.8 210 76.2 210H0ZM25.2 91.8H72C85.4 91.8 95.7 88.7 102.9 82.5C110.1 76.1 113.7 67.3 113.7 56.1C113.7 45.5 110.1 37 102.9 30.6C95.9 24.2 85.3 21 71.1 21H25.2V91.8ZM25.2 189H73.5C87.9 189 99 185.7 106.8 179.1C114.6 172.3 118.5 162.9 118.5 150.9C118.5 139.1 114.4 129.7 106.2 122.7C98 115.5 86.9 111.9 72.9 111.9H25.2V189Z" fill="#49463D"/>
<path d="M256.652 153.272C246.598 130.117 228.039 111.706 204.805 101.838C181.57 91.97 155.434 91.3991 131.791 100.243L140.027 122.261C158.028 115.528 177.926 115.963 195.615 123.476C213.304 130.989 227.434 145.006 235.088 162.634L256.652 153.272Z" fill="#49463D"/>
<path d="M94.7606 124.792C84.1169 136.038 76.2744 149.635 71.8696 164.479C67.4648 179.324 66.6217 194.998 69.4087 210.229C72.1957 225.461 78.5344 239.82 87.9103 252.143C97.2863 264.466 109.435 274.405 123.372 281.153C137.308 287.902 152.639 291.269 168.121 290.983C183.602 290.697 198.798 286.765 212.476 279.506C226.153 272.247 237.926 261.866 246.841 249.205C255.755 236.544 261.558 221.96 263.78 206.636L240.515 203.262C238.823 214.929 234.405 226.032 227.618 235.672C220.832 245.311 211.868 253.214 201.455 258.741C191.042 264.267 179.473 267.261 167.686 267.479C155.899 267.697 144.227 265.133 133.617 259.995C123.007 254.857 113.757 247.29 106.619 237.908C99.481 228.527 94.6552 217.594 92.5333 205.998C90.4114 194.402 91.0533 182.469 94.4069 171.167C97.7604 159.865 103.731 149.514 111.835 140.952L94.7606 124.792Z" fill="#49463D"/>
<path d="M166.8 195H264.8V218H166.8V195Z" fill="#49463D"/>
<path d="M241.8 293V195H264.8V293H241.8Z" fill="#49463D"/>
</svg>
