<svg width="265" height="293" viewBox="0 0 265 293" fill="none" xmlns="http://www.w3.org/2000/svg">
<path d="M0.199951 210V0H74C88.8 0 101 2.4 110.6 7.2C120.4 11.8 127.7 18.2 132.5 26.4C137.3 34.4 139.7 43.4 139.7 53.4C139.7 67 136 77.7 128.6 85.5C121.4 93.3 112.7 98.7 102.5 101.7C110.3 103.1 117.4 106.2 123.8 111C130.2 115.8 135.2 121.8 138.8 129C142.6 136.2 144.5 144.1 144.5 152.7C144.5 163.3 141.9 173 136.7 181.8C131.5 190.4 123.8 197.3 113.6 202.5C103.4 207.5 91 210 76.4 210H0.199951ZM25.4 91.8H72.2C85.6 91.8 95.9 88.7 103.1 82.5C110.3 76.1 113.9 67.3 113.9 56.1C113.9 45.5 110.3 37 103.1 30.6C96.1 24.2 85.5 21 71.3 21H25.4V91.8ZM25.4 189H73.7C88.1 189 99.2 185.7 107 179.1C114.8 172.3 118.7 162.9 118.7 150.9C118.7 139.1 114.6 129.7 106.4 122.7C98.2 115.5 87.1 111.9 73.1 111.9H25.4V189Z" fill="#808080"/>
<path d="M256.852 153.272C246.798 130.117 228.239 111.706 205.005 101.838C181.77 91.97 155.634 91.3991 131.991 100.243L140.227 122.261C158.227 115.528 178.126 115.963 195.815 123.476C213.504 130.989 227.634 145.006 235.288 162.634L256.852 153.272Z" fill="#808080"/>
<path d="M94.9606 124.792C84.3169 136.038 76.4744 149.635 72.0695 164.479C67.6647 179.324 66.8216 194.998 69.6086 210.229C72.3957 225.461 78.7344 239.82 88.1103 252.143C97.4862 264.466 109.635 274.405 123.572 281.153C137.508 287.902 152.839 291.269 168.321 290.983C183.802 290.697 198.998 286.765 212.676 279.506C226.353 272.247 238.126 261.866 247.041 249.205C255.955 236.544 261.758 221.96 263.98 206.636L240.715 203.262C239.023 214.929 234.605 226.032 227.818 235.672C221.032 245.311 212.068 253.214 201.655 258.741C191.242 264.267 179.673 267.261 167.886 267.479C156.099 267.697 144.427 265.133 133.817 259.995C123.207 254.857 113.957 247.29 106.819 237.908C99.681 228.527 94.8551 217.594 92.7333 205.998C90.6114 194.402 91.2533 182.469 94.6068 171.167C97.9604 159.865 103.931 149.514 112.035 140.952L94.9606 124.792Z" fill="#808080"/>
<path d="M167 195H265V218H167V195Z" fill="#808080"/>
<path d="M242 293V195H265V293H242Z" fill="#808080"/>
</svg>
